# 3ds Max Wavefront OBJ Exporter v0.97b - (c)2007 guruware
# File Created: 05.09.2017 10:35:29

mtllib Camp.mtl

#
# object Box001
#

v  280547.7500 1.0227 -295503.4375
v  259387.6719 55079.2578 -339951.5000
v  -32713.9688 55079.2617 -202310.9531
v  -12143.9453 1.0227 -159019.0781
v  -12143.9531 0.8117 -159019.0938
v  280547.6875 0.8117 -295503.4375
v  227570.5313 79616.3594 -407615.8438
v  227110.1094 95539.4766 -408555.4375
v  228030.9688 63693.2461 -406676.2500
v  228491.4063 47770.1406 -405736.6563
v  228951.8438 31847.0293 -404797.0625
v  229412.2656 15923.9199 -403857.5000
v  229872.7188 0.8117 -402917.9063
v  168229.9531 0.8117 -536369.6250
v  -124461.7031 0.8117 -399885.3125
v  -124461.7500 1.0227 -399885.3125
v  168229.9531 1.0227 -536369.6875
v  -68302.8281 0.8117 -279452.1875
v  -68026.6719 110157.4063 -278914.5938
v  -103301.6719 55079.2656 -355437.2500
v  214583.1094 165235.7813 -437331.6875
v  -77121.5156 165235.7813 -298918.1875
v  -68302.8281 220314.0313 -279452.1875
v  224388.8281 220314.0313 -415936.5625
v  188800.0000 55079.2656 -493077.8125
v  227016.8594 95549.3438 -409559.9063
v  206175.6250 0.8117 -453736.4375
v  233207.5000 165235.7813 -396470.5625
v  -58497.1094 165235.7813 -258057.0781
v  -47214.9219 110157.5156 -233161.3125
v  243292.0938 110157.5156 -373161.7188
v  -87206.0938 110157.5313 -322227.0313
v  203300.9531 110157.5391 -462227.4688
v  223974.1250 134393.5625 -416743.8750
v  223797.8281 165235.7188 -417087.0938
v  -67711.8125 165235.7188 -278301.6563
v  246235.8281 47770.1406 -410431.8750
v  254578.9063 63693.2539 -411324.2813
v  235327.0781 15923.9219 -405726.5625
v  240781.4375 31847.0332 -408535.2188
v  264839.5625 79616.3594 -410394.4375
v  278362.6250 95539.4766 -408338.0938
# 42 vertices

vn 0.3392 0.6086 0.7173
vn 0.3564 0.5575 0.7498
vn 0.3633 0.5432 0.7569
vn 0.3377 0.6012 0.7242
vn 0.4200 -0.1104 0.9008
vn 0.4215 -0.0739 0.9038
vn 0.9057 0.0005 -0.4240
vn 0.9272 0.0045 -0.3745
vn 0.9059 0.0012 -0.4235
vn 0.9055 0.0009 -0.4244
vn 0.9044 -0.0452 -0.4244
vn 0.9028 -0.0737 -0.4237
vn -0.4181 -0.1465 -0.8965
vn -0.4223 -0.0370 -0.9057
vn -0.9066 0.0008 0.4220
vn -0.9087 0.0003 0.4174
vn -0.9073 0.0030 0.4206
vn -0.9042 -0.0681 0.4216
vn -0.9008 -0.1104 0.4200
vn -0.3995 0.3673 -0.8399
vn -0.4104 0.3469 -0.8434
vn -0.4078 0.3247 -0.8534
vn -0.3964 0.3465 -0.8502
vn 0.9144 -0.0169 -0.4044
vn 0.9212 -0.0314 -0.3878
vn 0.9098 -0.0084 -0.4150
vn 0.9375 0.0104 -0.3478
vn 0.9076 -0.0025 -0.4197
vn -0.9061 -0.0012 0.4231
vn -0.9049 -0.0004 0.4257
vn -0.9104 -0.0100 0.4136
vn 0.4104 0.3469 0.8434
vn 0.3995 0.3673 0.8399
vn 0.3970 0.4308 0.8104
vn 0.3955 0.4325 0.8103
vn -0.3656 0.5417 -0.7569
vn -0.3549 0.5561 -0.7516
vn -0.3955 0.4325 -0.8103
vn -0.3970 0.4308 -0.8104
vn 0.9084 -0.0008 -0.4180
vn 0.9083 -0.0003 -0.4184
vn 0.9087 -0.0008 -0.4174
vn 0.9136 0.0125 -0.4065
vn -0.9083 -0.0001 0.4183
vn -0.9087 -0.0005 0.4174
vn -0.9107 0.0062 0.4130
vn 0.9145 -0.0112 -0.4045
vn 0.9084 0.0000 -0.4181
vn -0.9084 -0.0000 0.4181
vn -0.9085 -0.0022 0.4180
vn -0.3407 0.6040 -0.7205
vn -0.3344 0.6114 -0.7172
vn 0.4078 0.3247 0.8534
vn 0.3964 0.3465 0.8502
vn 0.9083 -0.0005 -0.4184
vn -0.9083 -0.0005 0.4184
vn 0.0313 0.0042 0.9995
vn 0.1977 0.0550 0.9787
vn 0.1490 0.0358 0.9882
vn -0.2335 -0.0345 0.9717
vn -0.1126 -0.0274 0.9933
# 61 vertex normals

vt 1.0000 0.0000 0.0000
vt 1.0000 0.1250 0.0000
vt 0.0000 0.1250 0.0000
vt 0.0000 0.0000 0.0000
vt 1.0000 1.0000 0.0000
vt 0.0000 1.0000 0.0000
vt 0.3995 0.5273 0.0000
vt 0.4005 0.6327 0.0000
vt 0.1250 1.0000 0.0000
vt 0.3985 0.4218 0.0000
vt 0.3975 0.3164 0.0000
vt 0.3965 0.2109 0.0000
vt 0.3955 0.1055 0.0000
vt 0.3945 0.0000 0.0000
vt 0.5000 0.0000 0.0000
vt 0.5000 0.5000 0.0000
vt 1.0000 0.6250 0.0000
vt 0.0000 0.6250 0.0000
vt 0.0000 0.5000 0.0000
vt 1.0000 0.5000 0.0000
vt 0.8750 1.0000 0.0000
vt 0.5995 0.6326 0.0000
vt 0.6055 0.0000 0.0000
vt 1.0000 0.3750 0.0000
vt 0.0000 0.3750 0.0000
vt 0.0000 0.2500 0.0000
vt 1.0000 0.2500 0.0000
vt 1.0000 0.8750 0.0000
vt 0.0000 0.8750 0.0000
vt 0.0000 0.7500 0.0000
vt 1.0000 0.7500 0.0000
vt 0.5000 0.6100 0.0000
vt 0.5000 0.7500 0.0000
vt 0.3750 1.0000 0.0000
vt 0.2500 1.0000 0.0000
vt 0.7500 1.0000 0.0000
vt 0.6250 1.0000 0.0000
vt 0.5000 1.0000 0.0000
# 38 texture coords

g Box001
usemtl _crayfishdiffuse
s 1
f -42/-38/-61 -41/-37/-60 -40/-36/-59 -39/-35/-58 
s 2
f -38/-35/-57 -37/-38/-56 -42/-34/-56 -39/-33/-57 
s 4
f -36/-32/-55 -35/-31/-54 -41/-30/-53 -34/-29/-55 
f -33/-28/-55 -34/-29/-55 -41/-30/-53 -32/-27/-55 
f -31/-26/-55 -32/-27/-55 -41/-30/-53 -30/-25/-52 
f -30/-25/-52 -41/-30/-53 -42/-33/-51 -37/-35/-50 
s 2
f -29/-35/-49 -28/-38/-48 -27/-34/-48 -26/-33/-49 
s 4
f -25/-24/-47 -24/-23/-46 -23/-30/-45 -27/-33/-44 
f -28/-35/-43 -25/-24/-47 -27/-33/-44 
s 8
f -22/-22/-42 -21/-21/-41 -20/-20/-40 -19/-19/-39 
s 4
f -29/-38/-38 -26/-34/-37 -18/-18/-36 -17/-17/-35 
f -16/-16/-34 -29/-38/-38 -17/-17/-35 
f -38/-38/-33 -39/-34/-32 -40/-18/-31 -24/-23/-46 
f -25/-24/-47 -38/-38/-33 -24/-23/-46 
s 1
f -15/-15/-30 -14/-14/-29 -13/-13/-28 -12/-12/-27 
s 8
f -18/-11/-26 -23/-10/-25 -11/-9/-24 -10/-8/-23 
s 1
f -12/-12/-27 -13/-13/-28 -40/-36/-59 -41/-37/-60 
s 4
f -9/-7/-22 -8/-6/-21 -15/-5/-20 -12/-4/-19 
f -9/-7/-22 -12/-4/-19 -41/-30/-53 -35/-31/-54 
f -24/-23/-46 -7/-6/-18 -21/-5/-17 -11/-4/-16 
f -24/-23/-46 -11/-4/-16 -23/-30/-45 
f -10/-3/-15 -22/-2/-14 -8/-6/-21 -18/-18/-36 
f -18/-18/-36 -8/-6/-21 -9/-7/-22 -17/-17/-35 
f -14/-2/-13 -7/-6/-18 -24/-23/-46 -13/-3/-12 
f -40/-18/-31 -13/-3/-12 -24/-23/-46 
s 8
f -26/-34/-11 -27/-33/-10 -23/-10/-25 -18/-11/-26 
f -10/-8/-23 -11/-9/-24 -21/-21/-41 -22/-22/-42 
s 1
f -19/-19/-9 -20/-20/-8 -14/-14/-29 -15/-15/-30 
s 4
f -8/-6/-21 -19/-1/-7 -15/-5/-20 
f -7/-6/-18 -20/-1/-6 -21/-5/-17 
f -22/-2/-14 -19/-1/-7 -8/-6/-21 
f -14/-2/-13 -20/-1/-6 -7/-6/-18 
f -17/-17/-35 -9/-7/-22 -35/-31/-54 
usemtl 02___Default
s off
f -34/-29/-5 -33/-28/-5 -6/-28/-5 -5/-29/-5 
f -31/-26/-4 -30/-25/-4 -4/-26/-4 
f -32/-27/-4 -31/-26/-4 -4/-26/-4 -3/-27/-4 
f -33/-28/-3 -32/-27/-3 -3/-27/-3 -6/-28/-3 
f -2/-32/-2 -1/-31/-2 -35/-31/-2 -36/-32/-2 
f -5/-29/-1 -2/-32/-1 -36/-32/-1 -34/-29/-1 
# 28 polygons - 11 triangles

#
# object Cylinder001
#

v  222196.2500 206206.4375 -414956.1250
v  223255.9219 206206.4375 -415600.5313
v  223390.4844 206206.4375 -415290.7188
v  223436.4688 206206.4375 -414956.1250
v  222766.8281 206206.4375 -416057.3125
v  223042.7656 206206.4375 -415862.5313
v  222111.6094 206206.4375 -416193.4688
v  222448.5781 206206.4375 -416170.4063
v  221481.0313 206206.4375 -415969.3438
v  221780.9219 206206.4375 -416124.7500
v  221058.7031 206206.4375 -415450.2188
v  221234.1875 206206.4375 -415738.8125
v  220967.5781 206206.4375 -414787.2500
v  220967.5781 206206.4375 -415125.0000
v  221234.1875 206206.4375 -414173.4375
v  221058.7031 206206.4375 -414462.0313
v  221780.9219 206206.4375 -413787.5000
v  221481.0313 206206.4375 -413942.9063
v  222448.5781 206206.4375 -413741.8438
v  222111.6094 206206.4375 -413718.7813
v  223042.7656 206206.4375 -414049.7188
v  222766.8281 206206.4375 -413854.9375
v  223390.4844 206206.4375 -414621.5313
v  223255.9219 206206.4375 -414311.7188
v  223390.4844 316454.0313 -415290.7188
v  223436.4688 316454.0313 -414956.1250
v  223255.9219 316454.0313 -415600.5313
v  223042.7656 316454.0313 -415862.5313
v  222766.8281 316454.0313 -416057.3125
v  222448.5781 316454.0313 -416170.4063
v  222111.6094 316454.0313 -416193.4688
v  221780.9219 316454.0313 -416124.7500
v  221481.0313 316454.0313 -415969.3438
v  221234.1875 316454.0313 -415738.8125
v  221058.7031 316454.0313 -415450.2188
v  220967.5781 316454.0313 -415125.0000
v  220967.5781 316454.0313 -414787.2500
v  221058.7031 316454.0313 -414462.0313
v  221234.1875 316454.0313 -414173.4375
v  221481.0313 316454.0313 -413942.9063
v  221780.9219 316454.0313 -413787.5000
v  222111.6094 316454.0313 -413718.7813
v  222448.5781 316454.0313 -413741.8438
v  222766.8281 316454.0313 -413854.9375
v  223042.7656 316454.0313 -414049.7188
v  223255.9219 316454.0313 -414311.7188
v  223390.4844 316454.0313 -414621.5313
v  222196.2500 316454.0313 -414956.1250
# 48 vertices

vn 0.0000 -1.0000 -0.0000
vn 1.0000 0.0000 0.0000
vn 0.9629 0.0000 -0.2698
vn 0.8544 0.0000 -0.5196
vn 0.6826 0.0000 -0.7308
vn 0.4601 0.0000 -0.8879
vn 0.2035 0.0000 -0.9791
vn -0.0682 0.0000 -0.9977
vn -0.3349 0.0000 -0.9423
vn -0.5767 0.0000 -0.8170
vn -0.7757 0.0000 -0.6311
vn -0.9172 0.0000 -0.3984
vn -0.9907 0.0000 -0.1362
vn -0.9907 0.0000 0.1362
vn -0.9172 0.0000 0.3984
vn -0.7757 0.0000 0.6311
vn -0.5767 0.0000 0.8170
vn -0.3349 0.0000 0.9423
vn -0.0682 0.0000 0.9977
vn 0.2035 0.0000 0.9791
vn 0.4601 0.0000 0.8879
vn 0.6826 0.0000 0.7308
vn 0.8544 0.0000 0.5196
vn 0.9629 0.0000 0.2698
vn 0.0000 1.0000 -0.0000
# 25 vertex normals

vt 0.5000 0.0000 0.0000
vt 0.8370 0.0000 1.0000
vt 0.7935 0.0000 1.0000
vt 0.7500 0.0000 1.0000
vt 0.9239 0.0000 1.0000
vt 0.8804 0.0000 1.0000
vt 0.9762 0.0000 0.9258
vt 0.9674 0.0000 1.0000
vt 0.0978 0.0000 1.0000
vt 0.0543 0.0000 1.0000
vt 0.0109 0.0000 1.0000
vt 0.1848 0.0000 1.0000
vt 0.1413 0.0000 1.0000
vt 0.2717 0.0000 1.0000
vt 0.2283 0.0000 1.0000
vt 0.3587 0.0000 1.0000
vt 0.3152 0.0000 1.0000
vt 0.4457 0.0000 1.0000
vt 0.4022 0.0000 1.0000
vt 0.5326 0.0000 1.0000
vt 0.4891 0.0000 1.0000
vt 0.6196 0.0000 1.0000
vt 0.5761 0.0000 1.0000
vt 0.7065 0.0000 1.0000
vt 0.6630 0.0000 1.0000
vt 0.7935 1.0000 1.0000
vt 0.7500 1.0000 1.0000
vt 0.8370 1.0000 1.0000
vt 0.8804 1.0000 1.0000
vt 0.9239 1.0000 1.0000
vt 0.9674 1.0000 1.0000
vt -0.0326 0.0000 1.0000
vt 0.0109 1.0000 1.0000
vt -0.0326 1.0000 1.0000
vt 0.0543 1.0000 1.0000
vt 0.0978 1.0000 1.0000
vt 0.1413 1.0000 1.0000
vt 0.1848 1.0000 1.0000
vt 0.2283 1.0000 1.0000
vt 0.2717 1.0000 1.0000
vt 0.3152 1.0000 1.0000
vt 0.3587 1.0000 1.0000
vt 0.4022 1.0000 1.0000
vt 0.4457 1.0000 1.0000
vt 0.4891 1.0000 1.0000
vt 0.5326 1.0000 1.0000
vt 0.5761 1.0000 1.0000
vt 0.6196 1.0000 1.0000
vt 0.6630 1.0000 1.0000
vt 0.7065 1.0000 1.0000
vt 0.5000 1.0000 0.0000
# 51 texture coords

g Cylinder001
usemtl 03___Default
s 1
f -48/-51/-25 -47/-50/-25 -46/-49/-25 -45/-48/-25 
f -48/-51/-25 -44/-47/-25 -43/-46/-25 -47/-50/-25 
f -48/-51/-25 -42/-45/-25 -41/-44/-25 -44/-47/-25 
f -48/-51/-25 -40/-43/-25 -39/-42/-25 -42/-41/-25 
f -48/-51/-25 -38/-40/-25 -37/-39/-25 -40/-43/-25 
f -48/-51/-25 -36/-38/-25 -35/-37/-25 -38/-40/-25 
f -48/-51/-25 -34/-36/-25 -33/-35/-25 -36/-38/-25 
f -48/-51/-25 -32/-34/-25 -31/-33/-25 -34/-36/-25 
f -48/-51/-25 -30/-32/-25 -29/-31/-25 -32/-34/-25 
f -48/-51/-25 -28/-30/-25 -27/-29/-25 -30/-32/-25 
f -48/-51/-25 -26/-28/-25 -25/-27/-25 -28/-30/-25 
f -48/-51/-25 -45/-48/-25 -26/-28/-25 
s 8
f -45/-48/-24 -46/-49/-23 -24/-26/-23 -23/-25/-24 
f -46/-49/-23 -47/-50/-22 -22/-24/-22 -24/-26/-23 
f -47/-50/-22 -43/-46/-21 -21/-23/-21 -22/-24/-22 
f -43/-46/-21 -44/-47/-20 -20/-22/-20 -21/-23/-21 
f -44/-47/-20 -41/-44/-19 -19/-21/-19 -20/-22/-20 
f -41/-20/-19 -42/-41/-18 -18/-19/-18 -19/-18/-19 
f -42/-41/-18 -39/-42/-17 -17/-17/-17 -18/-19/-18 
f -39/-42/-17 -40/-43/-16 -16/-16/-16 -17/-17/-17 
f -40/-43/-16 -37/-39/-15 -15/-15/-15 -16/-16/-16 
f -37/-39/-15 -38/-40/-14 -14/-14/-14 -15/-15/-15 
f -38/-40/-14 -35/-37/-13 -13/-13/-13 -14/-14/-14 
f -35/-37/-13 -36/-38/-12 -12/-12/-12 -13/-13/-13 
f -36/-38/-12 -33/-35/-11 -11/-11/-11 -12/-12/-12 
f -33/-35/-11 -34/-36/-10 -10/-10/-10 -11/-11/-11 
f -34/-36/-10 -31/-33/-9 -9/-9/-9 -10/-10/-10 
f -31/-33/-9 -32/-34/-8 -8/-8/-8 -9/-9/-9 
f -32/-34/-8 -29/-31/-7 -7/-7/-7 -8/-8/-8 
f -29/-31/-7 -30/-32/-6 -6/-6/-6 -7/-7/-7 
f -30/-32/-6 -27/-29/-5 -5/-5/-5 -6/-6/-6 
f -27/-29/-5 -28/-30/-4 -4/-4/-4 -5/-5/-5 
f -28/-30/-4 -25/-27/-3 -3/-3/-3 -4/-4/-4 
f -25/-27/-3 -26/-28/-2 -2/-2/-2 -3/-3/-3 
f -26/-28/-2 -45/-48/-24 -23/-25/-24 -2/-2/-2 
s 1
f -1/-1/-1 -2/-2/-1 -23/-25/-1 -24/-26/-1 
f -1/-1/-1 -24/-26/-1 -22/-24/-1 -21/-23/-1 
f -1/-1/-1 -21/-23/-1 -20/-22/-1 -19/-21/-1 
f -1/-1/-1 -19/-18/-1 -18/-19/-1 -17/-17/-1 
f -1/-1/-1 -17/-17/-1 -16/-16/-1 -15/-15/-1 
f -1/-1/-1 -15/-15/-1 -14/-14/-1 -13/-13/-1 
f -1/-1/-1 -13/-13/-1 -12/-12/-1 -11/-11/-1 
f -1/-1/-1 -11/-11/-1 -10/-10/-1 -9/-9/-1 
f -1/-1/-1 -9/-9/-1 -8/-8/-1 -7/-7/-1 
f -1/-1/-1 -7/-7/-1 -6/-6/-1 -5/-5/-1 
f -1/-1/-1 -5/-5/-1 -4/-4/-1 -3/-3/-1 
f -1/-1/-1 -3/-3/-1 -2/-2/-1 
# 45 polygons - 2 triangles

#
# object Box002
#

v  222877.5469 281527.0000 -414633.8750
v  194412.4531 288983.2188 -475677.4688
v  222878.9688 315784.6875 -414630.8438
v  222877.5469 315784.6875 -414633.8438
v  222578.1875 315784.6875 -414490.5938
v  194111.6875 288983.2188 -475537.2188
v  222576.7813 281527.0000 -414493.5938
v  222576.7813 315784.6875 -414493.5938
# 8 vertices

vn 0.9063 -0.0000 -0.4226
vn -0.9054 0.0000 0.4245
vn -0.9059 0.0000 0.4235
vn 0.9025 -0.0000 -0.4307
vn -0.9063 0.0000 0.4226
vn 0.9045 -0.0000 -0.4265
vn -0.2882 0.7314 -0.6181
vn -0.1061 -0.9680 -0.2276
vn 0.4226 -0.0000 0.9063
vn -0.0000 -1.0000 -0.0000
# 10 vertex normals

vt 0.0000 1.0000 0.0000
vt 0.0000 0.0000 0.0000
vt 1.0000 0.0000 0.0000
vt 1.0000 1.0000 0.0000
# 4 texture coords

g Box002
usemtl 07___Default
s 2
f -8/-4/-10 -7/-3/-10 -6/-2/-9 -5/-1/-8 
s 4
f -4/-3/-7 -3/-2/-6 -2/-1/-6 -1/-4/-5 
s 8
f -6/-3/-4 -7/-2/-4 -3/-1/-4 -4/-4/-4 
s 16
f -7/-3/-3 -8/-2/-3 -2/-1/-3 -3/-4/-3 
s 32
f -8/-3/-2 -5/-2/-2 -1/-1/-2 -2/-4/-2 
s 64
f -5/-3/-1 -6/-2/-1 -4/-1/-1 -1/-4/-1 
# 6 polygons

